# xmcd
#
# Track frame offsets:
#	150
#	11498
#	25503
#	40238
#	55258
#	69185
#	82770
#	96138
#	110370
#	124460
#	128819
#	145495
#	157596
#	172831
#	187055
#	205632
#	219077
#	226945
#	239158
#	249776
#	261500
#	275593
#
# Disc length: 3861 seconds
#
# Revision: 1
# Processed by: cddbd v1.5.1PL0 Copyright (c) Steve Scherf et al.
# Submitted via: CDex 1.50Beta5
#
DISCID=230f1316
DTITLE=Various Artist - Punk Rock Soundtracks Vol. 1
DYEAR=2003
DGENRE=Alternative
TTITLE0=Stereo Vision/Tonight
TTITLE1=Totalfat/Nothing But
TTITLE2=Super Cola/Star
TTITLE3=Valve Drive/Follow Your Heart
TTITLE4=Good 4 Nothing/Worthless
TTITLE5=69Bug/My Mouth Remains Opened
TTITLE6=Donut Man/Never Ending Story
TTITLE7=Spicy Socks/Seaside Story
TTITLE8=Summer Ryhme/Don't Tread On Me
TTITLE9=Stompin Bird/Empty
TTITLE10=Easy Grip/The End Of The World
TTITLE11=For Better, For Worse/The Landscape Back To Us
TTITLE12=Pinhead/The Life Of Doing Form Nothing
TTITLE13=Golden Goose/Style
TTITLE14=Lidless Toybox/Kingdom Of The World
TTITLE15=A Field Day/Naked In The Wind
TTITLE16=Sp☆Iller/Just Need You
TTITLE17=Dom Dom Fire/E.L.I
TTITLE18=Margaline/Dissatisfaction
TTITLE19=Setereo Tone Sound/Tomorrow Is Another Day
TTITLE20=The Circum Stance/Look To Your Heart
TTITLE21=Remind/Your Song
EXTD=
EXTT0=
EXTT1=
EXTT2=
EXTT3=
EXTT4=
EXTT5=
EXTT6=
EXTT7=
EXTT8=
EXTT9=
EXTT10=
EXTT11=
EXTT12=
EXTT13=
EXTT14=
EXTT15=
EXTT16=
EXTT17=
EXTT18=
EXTT19=
EXTT20=
EXTT21=
PLAYORDER=
